<svg xmlns:dc="http://purl.org/dc/elements/1.1/" xmlns:cc="http://creativecommons.org/ns#" xmlns:rdf="http://www.w3.org/1999/02/22-rdf-syntax-ns#" xmlns:svg="http://www.w3.org/2000/svg" xmlns="http://www.w3.org/2000/svg" id="svg834" version="1.1" viewBox="0 0 404 330.57779" height="330.57779" width="404" preserveAspectRatio="xMinYMin meet">
<g transform="translate(-482.70908,-158.84849)">
<g transform="matrix(1.7777778,0,0,1.7777778,482.9313,159.07071)" fill="#000000">
<path d="m 107.7,128.2 c 0,-0.5 -0.2,-0.6 -0.7,-0.5 -0.5,0.1 -0.9,0.3 -1.4,0.4 -3.5,1.2 -7,2.3 -10.6,2.9 -0.7,0.1 -1.4,0.2 -2.2,0.3 0.1,-0.4 0.2,-0.6 0.3,-0.9 0.4,-1.1 0.9,-2.2 1.3,-3.3 0.3,-0.8 0.8,-1.2 1.5,-1.3 0,0 0.1,0 0.1,0 1.9,-0.5 3.7,-1 5.6,-1.5 0,0 0.1,0.1 0.1,0.1 -0.3,0.9 -0.6,1.8 -0.9,2.6 0,0.1 0.1,0.1 0.1,0.2 0.3,-0.1 0.7,-0.1 1,-0.2 2.3,-1.1 4.7,-1.7 7.2,-2.3 0.2,0 0.3,0 0.6,0 -0.7,0.9 -0.5,1.7 -0.2,2.6 0.8,2.7 1.5,5.3 2.2,8 0.2,0.9 0.4,1.8 0.1,2.8 -0.1,0.3 -0.2,0.6 0.2,0.9 0.7,-0.2 1.3,-0.7 1.8,-1.4 0.9,-1.2 1.9,-2.4 2.7,-3.7 2.5,-4.1 4.8,-8.3 7.6,-12.3 0.3,-0.5 0.6,-1 0.7,-1.5 0.3,-1 -0.2,-1.7 -1.3,-1.7 -0.6,0 -1.2,0 -1.8,0.1 -1,0.1 -2,0.3 -3,0.4 -0.8,0.1 -1.7,0.3 -2.5,0.4 -0.2,0 -0.4,0 -0.7,0 0.3,-0.4 0.5,-0.8 0.8,-1.1 0.8,-0.9 0.9,-1.8 0.6,-2.9 -0.3,-1 -0.4,-2 -0.2,-3 0.2,-1.2 0.4,-2.3 0.7,-3.5 0.1,-0.6 0,-1.1 -0.4,-1.6 -0.5,-0.6 -0.8,-0.6 -1.2,0 -0.4,0.5 -0.7,1.1 -1,1.6 -1,1.7 -2,3.3 -3.3,4.8 -1.7,2 -3.5,3.9 -5.3,5.8 -0.6,0.6 -1.3,1.2 -1.9,1.8 -0.5,-0.6 -1.1,-0.7 -1.7,-0.7 -1.1,0.1 -2.2,0.2 -3.4,0.4 -0.7,0.1 -1.5,0.3 -2.3,0.2 0.6,-1.7 1.2,-3.3 1.8,-5 1.1,0.7 2,1.4 2.9,2.1 0.9,0.7 1.8,1.4 2.8,2.2 0.2,-0.1 0.3,-0.2 0.4,-0.3 1,-0.9 1.6,-2 2.2,-3.2 0.2,-0.5 0.1,-0.9 -0.3,-1.2 -0.8,-0.7 -1.6,-1.5 -2.5,-2.2 -1.5,-1.2 -3.1,-2.3 -4.4,-3.7 -0.5,-0.5 -0.9,-0.4 -1.2,0.2 -0.8,1.5 -1.5,3 -1.8,4.6 -0.4,1.9 -0.9,3.7 -1.5,5.6 -0.5,1.5 -0.6,1.6 -2.2,1.4 -0.6,-0.1 -0.7,0 -1,0.5 -0.5,1.2 -1,2.4 -1.5,3.7 -0.2,0.6 -0.1,0.7 0.5,0.8 0.5,0.1 1,0 1.5,0.1 -0.3,0.8 -0.6,1.5 -0.9,2.3 -1.7,0.1 -3.2,0.2 -4.8,0.4 -1.6,0.1 -3.2,0.4 -4.9,0.5 0.5,-1 1,-1.9 1.5,-2.8 0.2,-0.4 0.5,-0.6 0.9,-0.7 0.8,-0.1 1.5,-0.3 2.3,-0.4 0.8,-0.1 1.5,-0.4 1.9,-1 0.7,-0.9 1.4,-1.8 2,-2.7 0.4,-0.6 0.2,-1.1 -0.4,-1.4 -0.2,-0.1 -0.5,-0.1 -0.8,-0.1 -0.4,0 -0.7,0.1 -1.1,0.1 -0.7,0.1 -1.4,0.2 -2.2,0.3 0.4,-1.2 0.8,-2.2 1.2,-3.4 1.4,1 2.5,2.3 3.8,3.2 0.1,-0.1 0.2,-0.1 0.3,-0.2 0.8,-1.3 1.5,-2.6 1.9,-4.1 0.2,-0.6 -0.1,-1.2 -0.6,-1.6 -0.9,-0.8 -1.9,-1.7 -2.8,-2.5 -0.6,-0.6 -1.2,-1.2 -1.5,-2 -0.2,-0.5 -0.6,-0.7 -1.1,-0.7 -0.5,0 -0.6,0.4 -0.7,0.8 -0.4,1.1 -0.9,2.2 -1.3,3.3 -0.2,0.5 -0.3,1 -0.3,1.6 0.1,1.6 -0.1,3.2 -0.6,4.7 -0.4,1.4 -0.9,1.7 -2.3,1.3 -0.1,0 -0.3,-0.1 -0.4,-0.1 -0.8,-0.3 -1.1,-0.2 -1.5,0.6 -0.5,1 -0.9,2 -1.4,3 -0.6,1.5 -0.2,2 1.4,2.1 0.3,0 0.7,-0.1 1,0.2 -0.5,0.9 -1.1,1.9 -1.6,2.8 -0.8,-0.6 -6.4,-6.8 -6.7,-7.4 0.4,-0.1 0.8,-0.3 1.2,-0.4 1.3,-0.3 2.6,-0.7 3.9,-1 1.2,-0.3 2.2,-0.9 2.9,-1.9 0.6,-0.9 1.2,-1.8 1.8,-2.7 0.5,-0.8 0.5,-1.3 -0.2,-1.9 -0.7,-0.7 -1.4,-1.3 -2.1,-1.9 -2.7,-2.1 -5.4,-4.2 -8.2,-6.3 -1.4,-1 -2.6,-2.1 -3.5,-3.6 -0.1,-0.1 -0.2,-0.2 -0.2,-0.3 -0.6,-0.7 -1.2,-0.7 -1.6,0.2 -0.6,1.2 -1.1,2.4 -1.7,3.6 -0.3,0.6 -0.1,1 0.2,1.5 0.9,1.1 1.9,2 3.1,2.9 0.5,0.4 1,0.8 1.5,1.2 0.3,0.2 0.6,0.6 0.4,1 -0.4,1 -0.7,1.9 -0.6,3 0,0 0,0.1 0,0.1 -0.4,1 -0.7,1.9 -1.1,2.9 -0.1,0.2 -0.3,0.4 -0.4,0.4 -0.9,0.1 -1.3,0.7 -1.6,1.4 -0.4,0.9 -0.8,1.8 -1.2,2.7 -0.4,1 -0.4,1.2 0.5,1.9 0,0 0,0.1 0.1,0.2 -0.2,0.3 -0.3,0.7 -0.5,1.1 -1,2.4 -2.1,4.8 -3.1,7.2 -0.2,0.4 -0.2,0.8 -0.3,1.2 0,0.2 0.1,0.5 0.3,0.6 0.2,0.1 0.4,-0.1 0.6,-0.2 0.8,-0.6 1.3,-1.4 1.7,-2.3 0.9,-2 1.7,-4.1 2.6,-6.1 0.1,-0.2 0.2,-0.5 0.3,-0.7 0.2,0.1 0.3,0.2 0.4,0.3 2.9,2.5 5.6,5.2 7.7,8.4 0.3,0.5 0.4,0.5 1,0.3 0.1,0 0.2,-0.1 0.4,-0.2 -0.1,0.4 -0.2,0.6 -0.2,0.9 -0.1,0.5 0.2,0.8 0.7,0.8 0.2,0 0.5,-0.1 0.7,-0.2 0.6,-0.2 1.1,-0.5 1.7,-0.6 2.6,-0.7 5.2,-0.9 7.8,-1 0.2,0 0.4,0 0.7,0.1 -0.1,0.3 -0.1,0.6 -0.2,0.9 -0.1,0.2 -0.2,0.5 -0.2,0.7 -0.1,0.4 -0.2,1 0.2,1.3 0.4,0.3 0.9,0 1.3,-0.1 0.8,-0.3 1.6,-0.7 2.4,-1 3.6,-1.2 7.3,-2 11,-2.7 1.2,-0.2 2.1,-0.8 2.8,-1.8 0.5,-0.8 1,-1.6 1.4,-2.4 0.3,-1.1 0.4,-1.7 0.4,-2.1 z m 13.1,-5.3 c -0.1,0.6 -4.9,8.7 -5.6,9.5 -0.7,-2.8 -1.4,-5.5 -2.1,-8.2 1.1,-0.6 6.3,-1.4 7.7,-1.3 z m -8,-8 c 0.3,1.6 0.6,3.1 0.9,4.8 -1.9,0.4 -4,0.9 -6,1.3 0,-0.1 -0.1,-0.1 -0.1,-0.2 1.7,-1.9 3.4,-3.9 5.2,-5.9 z m -41.9,3.9 c 0.6,-1.6 1.3,-3.1 2,-4.8 1.5,1.1 3,2.2 4.6,3.4 -2.2,0.6 -4.3,1 -6.3,1.5 -0.2,0 -0.3,0 -0.3,-0.1 z" class="st0" />
<path d="m 188.2,128.4 c -0.7,0 -1.4,-0.1 -2.1,-0.1 -3,0.1 -5.9,0.6 -8.8,1.1 -2.6,0.5 -5.2,1 -7.7,1.6 -4.2,1 -8.4,2.1 -12.7,3.2 -0.3,0.1 -0.6,0.2 -0.9,0.1 0,-0.1 0,-0.2 0,-0.2 1.1,-2.6 2.2,-5.1 3.3,-7.7 0.2,-0.4 0.4,-0.5 0.7,-0.5 1.3,-0.1 2.5,-0.1 3.8,-0.2 0.7,0 1.4,-0.2 2,-0.8 0.6,-0.8 1.3,-1.5 1.9,-2.3 0.1,-0.2 0.2,-0.4 0.2,-0.6 0,-0.6 -0.8,-1.3 -1.4,-1.3 -0.7,0.1 -1.4,0.1 -2.1,0.2 -1.1,0.1 -2.1,0.2 -3.3,0.3 0.4,-1.4 0.8,-2.7 1.3,-4 0.2,0.1 0.4,0.2 0.5,0.3 2,1.4 4.2,2.6 6.5,3.6 0.5,0.2 0.8,0.1 1.1,-0.2 0.7,-0.7 1.2,-1.6 1.6,-2.6 0.5,-1.3 0.4,-1.5 -0.9,-2 -1.9,-0.8 -3.6,-1.9 -5.2,-3.1 -1.2,-0.9 -2.3,-1.8 -3.5,-2.7 -0.8,-0.6 -1.1,-0.5 -1.5,0.4 -0.3,0.8 -0.6,1.7 -0.9,2.5 -0.4,1 -0.5,2 -0.3,3 0.1,0.5 0.1,1 0,1.5 -0.2,1.1 -0.6,2.1 -0.9,3.2 -0.1,0.4 -0.3,0.6 -0.7,0.6 -0.7,0 -1.5,0.1 -2.2,0 -0.7,-0.1 -1,0 -1.3,0.7 -0.4,0.9 -0.7,1.7 -1,2.6 -0.4,1.2 -0.1,1.5 1.2,1.4 0.7,0 1.3,-0.1 2.1,-0.1 -0.2,0.4 -0.3,0.7 -0.4,0.8 -0.6,0.1 -1,0.1 -1.4,0.2 -0.2,0 -0.4,0.1 -0.5,0.1 -2,0.4 -3.9,0.7 -5.9,1.1 -0.8,0.1 -1.6,0.3 -2.6,0.4 0.2,-0.4 0.4,-0.7 0.5,-0.9 1.7,-2.9 3.3,-5.8 5,-8.7 0.6,-1.2 1.2,-2.4 1.7,-3.7 0.2,-0.4 0.2,-0.9 0.2,-1.3 0,-0.5 -0.6,-1 -1.1,-1.1 -0.5,-0.1 -0.8,0.1 -1,0.7 -0.1,0.2 -0.2,0.5 -0.3,0.8 -0.6,1.5 -1,3 -1.7,4.4 -1.6,3.3 -3.5,6.4 -5.7,9.4 -0.3,0.4 -0.6,0.7 -0.9,1 -0.2,0.2 -0.4,0.5 -0.5,0.7 -0.4,1.3 -0.7,2.6 -1,3.9 -0.2,0.8 0,1.5 1.2,1.2 0.2,0 0.3,-0.1 0.5,-0.1 3,-1 6.2,-1.7 9.3,-2.2 0.5,-0.1 1.1,-0.1 1.8,-0.2 -0.3,1 -0.7,1.9 -1.2,2.6 -0.2,0.3 -0.4,0.7 -0.5,1.1 -0.2,0.5 -0.4,1.1 -0.5,1.6 -0.2,0.9 -0.4,1.7 -0.6,2.6 -0.1,0.6 0.3,0.9 0.9,0.8 0.2,0 0.4,-0.3 0.6,-0.4 0.4,-0.3 0.8,-0.7 1.3,-0.8 3.1,-1 6.2,-2.1 9.3,-2.9 4.1,-1.1 8.3,-2 12.5,-2.8 2.9,-0.6 5.7,-1 8.6,-0.9 0.2,0 0.5,0 0.7,0.1 0.8,0.5 1.4,0.1 1.8,-0.5 0.8,-1.1 1.5,-2.2 2.3,-3.3 0.1,-0.1 0.1,-0.4 0,-0.5 -0.2,-0.5 -0.5,-1 -1.2,-1.1 z" class="st0" />
<path d="m 47.1,97.6 c 42.4,0 84.6,0 126.9,0 0.1,0 0.1,-0.1 0.2,-0.1 0,-1 0.1,-1.9 0,-2.9 H 47.1 Z" class="st0" />
<path d="m 154.7,105.3 c 0,-0.1 0,-0.2 0,-0.2 0,-0.6 -0.5,-1.1 -1.2,-1.2 -0.5,-0.1 -0.7,0.1 -1,0.8 -0.2,0.5 -0.4,1 -0.8,1.5 -2.2,2.8 -4.5,5.6 -6.7,8.4 -0.9,1.1 -1.8,2.2 -2.8,3.4 -1.2,1.4 -2.3,2.9 -3.5,4.3 -0.1,0.1 -0.2,0.3 -0.4,0.6 -1.1,-1.8 -2.4,-3.2 -3.2,-5 -0.2,-0.4 -0.5,-0.7 -1,-0.7 -0.4,0 -0.7,0.3 -0.9,0.6 -0.2,0.4 -0.4,0.9 -0.7,1.3 -0.6,0.7 -0.8,1.4 -1,2.2 -0.2,0.7 -0.1,1.3 0.4,1.9 0.8,1.1 1.6,2.2 2.3,3.3 0.5,0.8 0.5,0.9 -0.1,1.6 -0.7,1 -1.5,1.9 -2.2,2.9 -1.7,2.1 -3.3,4.3 -5,6.4 -0.3,0.4 -0.5,0.9 -0.3,1.4 0.4,1.1 0.8,2.3 1.2,3.4 0.1,0.4 0.4,0.8 0.9,0.8 0.5,0 0.7,-0.4 0.9,-0.8 0.7,-1.2 1.3,-2.5 2.1,-3.7 2.9,-4 5.8,-8 8.8,-12 3.8,-5 7.8,-10 11.7,-14.9 1.7,-1.8 2.2,-4 2.5,-6.3 z" class="st0" />
<path d="m 56.5,127.8 c 1.4,-0.1 2.8,-0.4 4.2,-0.4 1.1,0 1.7,-0.5 2.3,-1.2 0.6,-0.9 1.1,-1.9 1.7,-2.8 0.3,-0.5 0.2,-0.7 -0.2,-1.1 -0.5,-0.5 -1.2,-0.5 -1.8,-0.4 -1.1,0.2 -2.3,0.3 -3.4,0.4 -0.5,0.1 -1,0.1 -1.6,0.1 0.8,-2.4 1.5,-4.7 2.3,-7.1 0.4,0.4 0.6,0.7 0.9,1 1.4,1.4 2.8,2.8 4.2,4.2 0.5,0.5 0.8,0.5 1.2,-0.1 0.4,-0.6 0.9,-1.3 1.2,-2 0.3,-0.6 0.4,-1.3 0.6,-1.9 0.2,-0.6 0,-1.2 -0.7,-1.5 -0.3,-0.2 -0.5,-0.4 -0.8,-0.6 -2.1,-2.2 -4.6,-4 -6,-6.7 -0.1,-0.2 -0.4,-0.5 -0.6,-0.6 -0.3,-0.2 -0.6,-0.2 -0.8,0.2 -0.4,0.7 -0.8,1.5 -1.1,2.2 -0.3,0.6 -0.4,1.2 -0.7,1.7 -0.2,0.5 -0.3,1 -0.2,1.6 0.1,0.9 0.3,1.8 0.2,2.7 -0.2,2.5 -1,4.8 -1.7,7.2 -0.5,0.1 -0.9,0.2 -1.3,0.2 -2.1,0.3 -4.2,0.8 -6.3,0.6 -0.5,0 -0.8,0.2 -0.9,0.6 -0.4,1.3 -0.9,2.5 -1.3,3.8 -0.1,0.2 -0.1,0.5 -0.1,0.8 0,0.4 0.2,0.6 0.6,0.7 0.2,0 0.3,0 0.5,0 1.5,-0.2 2.9,-0.5 4.4,-0.7 0.7,-0.1 1.5,-0.2 2.3,-0.4 -0.1,0.4 -0.2,0.6 -0.3,0.9 -0.7,1.7 -1.4,3.4 -2.1,5.1 -0.3,0.8 -0.6,1.6 -1.1,2.3 -1.3,2.3 -2.2,4.8 -3.1,7.3 -0.2,0.6 -0.1,0.8 0.2,1.1 0.4,0.2 0.9,0.1 1.2,-0.2 0.2,-0.2 0.3,-0.5 0.4,-0.8 0.6,-1.4 1.3,-2.8 1.9,-4.3 1.5,-3.6 3,-7.2 4.5,-10.9 0.2,-0.6 0.6,-1 1.3,-1 z" class="st0" />
<path d="m 127.1,130.4 c 1.2,-4.1 2.5,-8.2 3.6,-12.4 0.2,-0.8 0.7,-1.2 1.5,-1.3 1.3,-0.2 2.5,-0.4 3.8,-0.6 1,-0.1 1.6,-0.7 2.1,-1.5 0.5,-0.8 1,-1.5 1.5,-2.3 0.4,-0.5 0.3,-0.9 -0.2,-1.3 -0.5,-0.4 -1.1,-0.4 -1.7,-0.3 -2.5,0.5 -5,1 -7.5,1.5 -2.6,0.5 -5.2,0.7 -7.9,0.3 -0.6,-0.1 -1.1,-0.3 -1.4,-0.8 -0.1,-0.2 -0.4,-0.5 -0.6,-0.6 -0.5,-0.3 -0.9,-0.2 -1.1,0.3 -0.7,1.2 -1.2,2.5 -1.6,3.9 -0.2,0.8 0,1.4 0.6,1.9 0.6,0.6 1.4,0.8 2.2,0.8 2,0.1 4,0 6,-0.4 0.4,-0.1 0.9,-0.1 1.4,0.1 -0.7,2.7 -1.3,5.4 -2.1,8 -0.9,3.2 -2,6.3 -3,9.4 -0.2,0.8 -0.2,0.8 0.5,1.2 0.1,-0.1 0.2,-0.1 0.3,-0.2 1.1,-0.8 1.8,-2 2.6,-3 0.4,-0.5 0.7,-1.1 0.7,-1.8 0.1,-0.3 0.2,-0.6 0.3,-0.9 z" class="st0" />
<polygon points="60.4,162.4 58.8,166.3 53.9,166.3 57.9,168.6 56.4,172.4 60.4,170.1 64.4,172.4 62.9,168.6 66.9,166.3 62,166.3 " class="st0" />
<polygon points="117.5,184.7 117.4,184.6 117.5,184.6 116,180.8 120,178.6 119.8,178.6 120,178.5 115.1,178.5 113.5,174.6 111.9,178.5 107,178.5 107.2,178.6 107,178.6 111,180.8 109.5,184.6 109.6,184.6 109.5,184.7 113.5,182.3 " class="st0" />
<polygon points="21.5,131.8 19.9,135.7 15,135.7 19,138 17.5,141.8 21.5,139.5 25.5,141.8 24,138 28,135.7 23.1,135.7 " class="st0" />
<polygon points="7.5,87.5 5.9,91.4 1,91.4 5,93.7 3.5,97.5 7.5,95.2 11.5,97.5 10,93.7 13.9,91.4 9.1,91.4 " class="st0" />
<polygon points="19.9,47.8 15,47.8 19,50 17.5,53.9 21.5,51.5 25.5,53.9 24,50 28,47.8 23.1,47.8 21.5,43.8 " class="st0" />
<polygon points="60.4,20.8 64.4,23.1 62.9,19.3 66.9,17 62.1,17 60.4,13.1 58.8,17 54,17 58,19.3 56.4,23.1 " class="st0" />
<polygon points="113.5,8.7 117.5,11 116,7.2 120,4.9 115.2,4.9 113.5,1 111.9,4.9 107.1,4.9 111.1,7.2 109.5,11 " class="st0" />
<polygon points="166.5,19.4 170.5,21.8 169,18 173,15.7 168.1,15.7 166.5,11.8 164.9,15.7 160,15.7 164,18 162.5,21.8 " class="st0" />
<polygon points="205.4,51.4 209.4,53.8 207.9,49.9 211.8,47.7 207,47.7 205.4,43.7 203.8,47.7 198.9,47.7 202.9,49.9 201.4,53.8 " class="st0" />
<polygon points="221.1,91.4 219.5,87.5 217.9,91.4 213.1,91.4 217,93.7 215.5,97.5 219.5,95.1 223.5,97.5 222,93.7 226,91.4 " class="st0" />
<polygon points="205.8,131.8 204.2,135.7 199.3,135.7 203.3,138 201.8,141.8 205.8,139.5 209.8,141.8 208.3,138 212.3,135.7 207.4,135.7 " class="st0" />
<polygon points="166.8,162.6 165.2,166.5 160.3,166.5 164.3,168.8 162.8,172.6 166.8,170.2 170.8,172.6 169.3,168.8 173.3,166.5 168.4,166.5 " class="st0" />
<path d="m 161.7,86.5 c 6.4,0 11.7,-2.3 15.9,-7.1 4.3,-4.9 7.6,-12.4 8.5,-20.5 1,-9.9 -4.3,-15.7 -13.2,-15.7 -6.4,0 -11.6,2.3 -15.9,7.1 -4.2,4.7 -7.6,12.4 -8.5,20.5 -1,9.7 4.5,15.7 13.2,15.7 z m 0,-14.8 c 0.5,-4.9 2.3,-10.7 4,-14.3 1.3,-2.7 2.7,-4 4.8,-4 1.9,0 2.6,1.5 2.3,4.6 -0.5,5.1 -2.3,10.8 -3.9,14.2 -1.4,2.8 -2.8,4.1 -4.7,4.1 -2.1,-0.1 -2.9,-1.5 -2.5,-4.6 z" class="st0" />
<path d="m 75.1,75.3 c -0.8,7.6 3.6,11.2 13.5,11.2 6.3,0 11.1,-1.6 14.5,-4.8 3.2,-3.1 4.2,-6.7 5.5,-11 l 7.7,-26.8 H 103 l -8,27.9 c -0.6,2.3 -1.9,3.6 -4,3.6 -1.6,0 -2.5,-0.9 -2.4,-2.3 0,-0.2 0.1,-0.6 0.3,-1.3 l 8,-27.9 H 83.6 L 76,70.7 c -0.4,1.7 -0.8,3.2 -0.9,4.6 z" class="st0" />
<path d="m 122.7,85.6 4.8,-16.8 1.2,16.8 h 14 l -3.9,-18.3 c 6.5,-1.4 10.4,-5.9 11.1,-12.8 0.9,-8.9 -5.3,-10.7 -17.3,-10.7 h -11.2 l -11.9,41.7 h 13.2 z m 9.4,-33 c 0.3,0 0.7,-0.1 0.9,-0.1 2.9,0 4.1,1.1 3.9,3.5 -0.4,4.2 -2.9,6.5 -6.9,6.5 h -0.7 z" class="st0" />
<polygon points="67.5,85.6 70.5,74.9 60.3,74.9 62,69.1 71.2,69.1 73.9,59.4 64.7,59.4 66.3,54.1 76.5,54.1 79.4,43.9 55.9,43.9 44,85.6 " class="st0" />
</g>
</g>
</svg>